<?xml version="1.0" encoding="utf-8" ?><svg xmlns="http://www.w3.org/2000/svg" xmlns:xlink="http://www.w3.org/1999/xlink" width="2928" height="181" viewBox="0 0 2928 181" xmlns:c2pa="http://c2pa.org/manifest"><metadata><c2pa:manifest>AAAOlmp1bWIAAAAeanVtZGMycGEAEQAQgAAAqgA4m3EDYzJwYQAAAA5wanVtYgAAAEdqdW1kYzJtYQARABCAAACqADibcQN1cm46YzJwYTo4ODM2NGEyYi1kODE1LTRiMWQtOWMwMy0yMjY1YzQ0OGM2ODIAAAADr2p1bWIAAAApanVtZGMyYXMAEQAQgAAAqgA4m3EDYzJwYS5hc3NlcnRpb25zAAAAAMxqdW1iAAAARGp1bWRjYm9yABEAEIAAAKoAOJtxE2MycGEuaW5ncmVkaWVudC52MwAAAAAYYzJzaH1blaVA5FbtkTRUfl4+Wf0AAACAY2JvcqRscmVsYXRpb25zaGlwaHBhcmVudE9maGRjOnRpdGxlZnNvdXJjZWlkYzpmb3JtYXRtaW1hZ2Uvc3ZnK3htbGppbnN0YW5jZUlEeCx4bXA6aWlkOjg2NDBkM2ZhLTFjYTAtNDhiYy05OTIwLWIyZWI4ZGFmZTRmNwAAAe5qdW1iAAAAQWp1bWRjYm9yABEAEIAAAKoAOJtxE2MycGEuYWN0aW9ucy52MgAAAAAYYzJzaJiG5YSNH7AvoDytkpjP+gIAAAGlY2JvcqFnYWN0aW9uc4KiZmFjdGlvbmtjMnBhLm9wZW5lZGpwYXJhbWV0ZXJzoWtpbmdyZWRpZW50c4GiY3VybHgtc2VsZiNqdW1iZj1jMnBhLmFzc2VydGlvbnMvYzJwYS5pbmdyZWRpZW50LnYzZGhhc2hYIMCPH4gg8t9GYsLsf4o6WDrrtbyzHEuYyQwAY3T28lj7pGZhY3Rpb25sYzJwYS5jcmVhdGVkanBhcmFtZXRlcnOha2luZ3JlZGllbnRzgaJjdXJseC1zZWxmI2p1bWJmPWMycGEuYXNzZXJ0aW9ucy9jMnBhLmluZ3JlZGllbnQudjNkaGFzaFggwI8fiCDy30Ziwux/ijpYOuu1vLMcS5jJDABjdPbyWPtxZGlnaXRhbFNvdXJjZVR5cGV4QWh0dHA6Ly9jdi5pcHRjLm9yZy9uZXdzY29kZXMvZGlnaXRhbHNvdXJjZXR5cGUvY29tcG9zaXRlU3ludGhldGlja2Rlc2NyaXB0aW9ueB9Db21wb3NlZCBpbiB0aGUgUmVjcmFmdCBlZGl0b3IuAAAAxGp1bWIAAABAanVtZGNib3IAEQAQgAAAqgA4m3ETYzJwYS5oYXNoLmRhdGEAAAAAGGMyc2hyBkZEbf0RZ6wajB+Zj+VpAAAAfGNib3KlamV4Y2x1c2lvbnOBomVzdGFydBjqZmxlbmd0aBkTdGRuYW1lbmp1bWJmIG1hbmlmZXN0Y2FsZ2ZzaGEyNTZkaGFzaFggEOvRiC4W7uVuZZUcu+1RWf1LudHb6bCByWaCxz6v411jcGFkSQAAAAAAAAAAAAAAApZqdW1iAAAAJ2p1bWRjMmNsABEAEIAAAKoAOJtxA2MycGEuY2xhaW0udjIAAAACZ2Nib3Knamluc3RhbmNlSUR4LHhtcDppaWQ6NGVjYTVmNGUtYzgwOC00ZWMwLTk2ZTItMTcyYWEzNjlhNzU1dGNsYWltX2dlbmVyYXRvcl9pbmZvo2RuYW1lanJlY3JhZnQuYWlndmVyc2lvbngoODFjZTgyZTJjNWMzY2JmYmU4YzZmYmUxNzlkNWY4ZDkxYzQwOWNlMXdvcmcuY29udGVudGF1dGguYzJwYV9yc2YwLjkwLjdpc2lnbmF0dXJleE1zZWxmI2p1bWJmPS9jMnBhL3VybjpjMnBhOjg4MzY0YTJiLWQ4MTUtNGIxZC05YzAzLTIyNjVjNDQ4YzY4Mi9jMnBhLnNpZ25hdHVyZXJjcmVhdGVkX2Fzc2VydGlvbnOComN1cmx4KnNlbGYjanVtYmY9YzJwYS5hc3NlcnRpb25zL2MycGEuYWN0aW9ucy52MmRoYXNoWCAT8we8MiQZDo4xmpo0Xkhm4ZTffE+kRsStLiFZzXtNwqJjdXJseClzZWxmI2p1bWJmPWMycGEuYXNzZXJ0aW9ucy9jMnBhLmhhc2guZGF0YWRoYXNoWCAAnN6vQIV9GD5BxgY4tNzHlsfN3xa3qfwY/oooTVsmq3NnYXRoZXJlZF9hc3NlcnRpb25zgaJjdXJseC1zZWxmI2p1bWJmPWMycGEuYXNzZXJ0aW9ucy9jMnBhLmluZ3JlZGllbnQudjNkaGFzaFggwI8fiCDy30Ziwux/ijpYOuu1vLMcS5jJDABjdPbyWPtoZGM6dGl0bGVtUmVjcmFmdCBJbWFnZWNhbGdmc2hhMjU2AAAH3Gp1bWIAAAAoanVtZGMyY3MAEQAQgAAAqgA4m3EDYzJwYS5zaWduYXR1cmUAAAAHrGNib3LShFkDsKIBJhghglkB5zCCAeMwggGJoAMCAQICCQC33lpjQ1FuejAKBggqhkjOPQQDAjBAMR8wHQYDVQQDDBZSZWNyYWZ0IFN0YWdpbmcgRGV2IENBMRAwDgYDVQQKDAdSZWNyYWZ0MQswCQYDVQQGEwJVUzAeFw0yNjA2MTIxOTQzNTBaFw0yNzA2MTIxOTQzNTBaMDcxCzAJBgNVBAYTAlVTMRMwEQYDVQQKEwpSZWNyYWZ0IEFJMRMwEQYDVQQDEwpyZWNyYWZ0LmFpMFkwEwYHKoZIzj0CAQYIKoZIzj0DAQcDQgAESmk1WwArIPw3hty3jsWHSA/1QOhBRu9xOjpJ2/iiIghScoEVM+Lnjds/7dqmG+giFL0vEb4DoogpX6KrGLcPNaN1MHMwDAYDVR0TAQH/BAIwADAOBgNVHQ8BAf8EBAMCBsAwEwYDVR0lBAwwCgYIKwYBBQUHAwQwHQYDVR0OBBYEFC8x6QXp/eki9cuCDx2vDJDLIV39MB8GA1UdIwQYMBaAFAILKjgayqqXSv/5v5MWaO2UeHm3MAoGCCqGSM49BAMCA0gAMEUCIFPISltGl775PEkIFRTZGsevWJvWnvBrE9kWU0MPgedQAiEAtA+AZBKEQ+DdK9mUZDctB2Wlt1iAsv0GRjfeYpReMsxZAb0wggG5MIIBX6ADAgECAgkAnPloO0+gE28wCgYIKoZIzj0EAwIwQDEfMB0GA1UEAwwWUmVjcmFmdCBTdGFnaW5nIERldiBDQTEQMA4GA1UECgwHUmVjcmFmdDELMAkGA1UEBhMCVVMwHhcNMjYwNjEyMTk0MDE2WhcNMjgwNjExMTk0MDE2WjBAMR8wHQYDVQQDDBZSZWNyYWZ0IFN0YWdpbmcgRGV2IENBMRAwDgYDVQQKDAdSZWNyYWZ0MQswCQYDVQQGEwJVUzBZMBMGByqGSM49AgEGCCqGSM49AwEHA0IABEPSEAZXFWymij2K0EnzoS/9NLO8VAwu0YpyLizvyNZPfcvcoeqFhfZD8Wj/rcdb9T3ji98q1arie99B9GRog8qjQjBAMA8GA1UdEwEB/wQFMAMBAf8wDgYDVR0PAQH/BAQDAgGGMB0GA1UdDgQWBBQCCyo4Gsqql0r/+b+TFmjtlHh5tzAKBggqhkjOPQQDAgNIADBFAiBUMDSJi5WA3kIY4BfmYqk24HLs0qpjicN0NpUP4bvNxQIhAPTvHC5v8X6FS6geI7XW7h84t1i/qdkTfg0RpMKWLMFboWNwYWRZA6QAAAAAAAAAAAAAAAAAAAAAAAAAAAAAAAAAAAAAAAAAAAAAAAAAAAAAAAAAAAAAAAAAAAAAAAAAAAAAAAAAAAAAAAAAAAAAAAAAAAAAAAAAAAAAAAAAAAAAAAAAAAAAAAAAAAAAAAAAAAAAAAAAAAAAAAAAAAAAAAAAAAAAAAAAAAAAAAAAAAAAAAAAAAAAAAAAAAAAAAAAAAAAAAAAAAAAAAAAAAAAAAAAAAAAAAAAAAAAAAAAAAAAAAAAAAAAAAAAAAAAAAAAAAAAAAAAAAAAAAAAAAAAAAAAAAAAAAAAAAAAAAAAAAAAAAAAAAAAAAAAAAAAAAAAAAAAAAAAAAAAAAAAAAAAAAAAAAAAAAAAAAAAAAAAAAAAAAAAAAAAAAAAAAAAAAAAAAAAAAAAAAAAAAAAAAAAAAAAAAAAAAAAAAAAAAAAAAAAAAAAAAAAAAAAAAAAAAAAAAAAAAAAAAAAAAAAAAAAAAAAAAAAAAAAAAAAAAAAAAAAAAAAAAAAAAAAAAAAAAAAAAAAAAAAAAAAAAAAAAAAAAAAAAAAAAAAAAAAAAAAAAAAAAAAAAAAAAAAAAAAAAAAAAAAAAAAAAAAAAAAAAAAAAAAAAAAAAAAAAAAAAAAAAAAAAAAAAAAAAAAAAAAAAAAAAAAAAAAAAAAAAAAAAAAAAAAAAAAAAAAAAAAAAAAAAAAAAAAAAAAAAAAAAAAAAAAAAAAAAAAAAAAAAAAAAAAAAAAAAAAAAAAAAAAAAAAAAAAAAAAAAAAAAAAAAAAAAAAAAAAAAAAAAAAAAAAAAAAAAAAAAAAAAAAAAAAAAAAAAAAAAAAAAAAAAAAAAAAAAAAAAAAAAAAAAAAAAAAAAAAAAAAAAAAAAAAAAAAAAAAAAAAAAAAAAAAAAAAAAAAAAAAAAAAAAAAAAAAAAAAAAAAAAAAAAAAAAAAAAAAAAAAAAAAAAAAAAAAAAAAAAAAAAAAAAAAAAAAAAAAAAAAAAAAAAAAAAAAAAAAAAAAAAAAAAAAAAAAAAAAAAAAAAAAAAAAAAAAAAAAAAAAAAAAAAAAAAAAAAAAAAAAAAAAAAAAAAAAAAAAAAAAAAAAAAAAAAAAAAAAAAAAAAAAAAAAAAAAAAAAAAAAAAAAAAAAAAAAAAAAAAAAAAAAAAAAAAAAAAAAAAAAAAAAAAAAAAAAAAAAAAAAAAAAAAAAAAAAAAAAAAAAAAAAAAAAAAAAAAAAAAAAAAAAAAAAAAAAAAAAAPZYQAogEuPvfFBGE77yT2lbcJrli/ZFH1FHK7DZ4IHCblYXgMu6a449kdbQFWw803GYBkVgGHQSnfpkGzG3X97+c+Q=</c2pa:manifest></metadata><path fill="#5B594F" transform="translate(-0.000976562 0)" d="M44.6223 139L44.6223 42.114L69.9694 42.114Q93.3485 42.114 106.175 54.9756Q119.001 67.8372 119.001 91.3206Q119.001 114.397 106.311 126.715Q93.62 139 69.7997 139L44.6223 139ZM50.5604 133.469L69.2569 133.469Q83.4065 133.469 93.1111 128.819Q102.815 124.17 107.838 114.804Q112.859 105.404 112.859 91.1848Q112.859 76.7622 107.77 67.0566Q102.714 57.3511 93.0771 52.4983Q83.4744 47.6455 69.7997 47.6455L50.5604 47.6455L50.5604 133.469ZM204.316 139L204.316 42.114L229.8 42.114Q240.183 42.114 247.173 45.2021Q254.162 48.2903 257.658 54.1611Q261.186 60.032 261.186 68.448Q261.186 79.4092 254.875 86.0605Q248.598 92.7119 236.416 94.3408Q234.516 94.4766 232.004 94.5784Q229.494 94.6462 227.39 94.6462L210.255 94.6462L210.255 139L204.316 139ZM260.1 139L234.007 93.5942L240.115 92.8137L266.887 139L260.1 139ZM210.255 89.2844L229.29 89.2844Q237.536 89.2844 243.304 86.9768Q249.107 84.6353 252.194 80.02Q255.282 75.3708 255.282 68.4819Q255.282 61.3555 252.126 56.7402Q249.005 52.125 243.202 49.8513Q237.4 47.5437 229.29 47.5437L210.255 47.5437L210.255 89.2844ZM340.9 139L375.714 42.114L381.279 42.114L416.229 139L409.646 139L378.598 49.9871L347.517 139L340.9 139ZM355.898 112.123L357.798 106.693L399.297 106.693L401.298 112.123L355.898 112.123ZM619.823 140.12Q606.895 140.12 598.752 132.484Q590.607 124.815 589.624 111.444L595.494 110.935Q596.308 122.304 602.789 128.378Q609.27 134.453 619.823 134.453Q631.631 134.453 637.433 126.58Q643.27 118.707 643.27 103.605L643.27 47.5437L602.687 47.5437L602.687 42.114L649.208 42.114L649.208 103.843Q649.208 115.449 645.781 123.559Q642.388 131.67 635.839 135.912Q629.324 140.12 619.823 140.12ZM737.464 139L737.464 42.114L800.305 42.114L800.305 47.5437L743.401 47.5437L743.401 87.2483L793.926 87.2483L793.926 92.678L743.401 92.678L743.401 133.57L800.305 133.57L800.305 139L737.464 139ZM907.066 140.052Q893.493 140.052 884.738 132.993Q875.984 125.901 873.982 113.99L879.819 112.53Q881.617 123.39 889.014 129.023Q896.411 134.656 907.202 134.656Q913.818 134.656 919.044 131.941Q924.303 129.193 927.357 124.408Q930.41 119.589 930.41 113.514Q930.41 106.693 926.882 102.587Q923.387 98.447 917.653 95.6643Q911.918 92.8816 905.199 90.4043Q898.176 87.7234 892.271 84.5334Q886.367 81.3096 882.872 76.6604Q879.411 72.0112 879.411 64.8169Q879.411 57.928 882.77 52.5662Q886.164 47.1704 892.271 44.0823Q898.413 40.9941 906.353 40.9941Q914.972 40.9941 921.554 44.8967Q928.138 48.7993 932.175 56.1633L927.459 59.1836Q923.964 53.1091 918.739 49.7495Q913.513 46.3899 906.217 46.3899Q900.008 46.3899 895.291 48.7654Q890.609 51.1069 887.962 55.2471Q885.349 59.3533 885.349 64.6472Q885.349 70.2805 888.301 74.0134Q891.254 77.7463 896.581 80.3933Q901.908 83.0403 908.864 85.6194Q916.703 88.5378 922.844 91.9314Q929.02 95.325 932.65 100.347Q936.281 105.37 936.281 113.107Q936.281 120.946 932.481 127.021Q928.715 133.061 922.131 136.557Q915.549 140.052 907.066 140.052ZM1047.86 140.052Q1034.29 140.052 1025.53 132.993Q1016.77 125.901 1014.77 113.99L1020.61 112.53Q1022.41 123.39 1029.81 129.023Q1037.2 134.656 1048 134.656Q1054.61 134.656 1059.84 131.941Q1065.1 129.193 1068.15 124.408Q1071.21 119.589 1071.21 113.514Q1071.21 106.693 1067.68 102.587Q1064.18 98.447 1058.45 95.6643Q1052.71 92.8816 1045.99 90.4043Q1038.97 87.7234 1033.06 84.5334Q1027.16 81.3096 1023.66 76.6604Q1020.2 72.0112 1020.2 64.8169Q1020.2 57.928 1023.56 52.5662Q1026.96 47.1704 1033.06 44.0823Q1039.21 40.9941 1047.15 40.9941Q1055.77 40.9941 1062.35 44.8967Q1068.93 48.7993 1072.97 56.1633L1068.26 59.1836Q1064.76 53.1091 1059.53 49.7495Q1054.31 46.3899 1047.01 46.3899Q1040.8 46.3899 1036.08 48.7654Q1031.4 51.1069 1028.75 55.2471Q1026.14 59.3533 1026.14 64.6472Q1026.14 70.2805 1029.09 74.0134Q1032.05 77.7463 1037.37 80.3933Q1042.7 83.0403 1049.66 85.6194Q1057.5 88.5378 1063.64 91.9314Q1069.82 95.325 1073.45 100.347Q1077.07 105.37 1077.07 113.107Q1077.07 120.946 1073.28 127.021Q1069.51 133.061 1062.93 136.557Q1056.34 140.052 1047.86 140.052ZM1161.37 139L1161.37 42.114L1167.31 42.114L1167.31 139L1161.37 139ZM1295.7 140.12Q1282.73 140.12 1272.96 133.978Q1263.23 127.801 1257.87 116.603Q1252.54 105.404 1252.54 90.4722Q1252.54 75.5745 1257.87 64.4775Q1263.23 53.3467 1272.96 47.1704Q1282.73 40.9941 1295.7 40.9941Q1309.47 40.9941 1319.52 47.8152Q1329.56 54.6362 1334.11 66.5815L1328.65 68.6516Q1324.78 58.6746 1316.36 52.7358Q1307.98 46.7632 1295.7 46.7632Q1284.36 46.7632 1275.98 52.125Q1267.6 57.4868 1263.03 67.2942Q1258.48 77.1016 1258.48 90.4722Q1258.48 103.877 1263.03 113.752Q1267.6 123.627 1275.98 128.989Q1284.36 134.351 1295.7 134.351Q1307.98 134.351 1316.36 128.378Q1324.78 122.406 1328.65 112.462L1334.11 114.499Q1329.56 126.41 1319.45 133.265Q1309.37 140.12 1295.7 140.12ZM1408.12 139L1442.94 42.114L1448.5 42.114L1483.45 139L1476.86 139L1445.82 49.9871L1414.74 139L1408.12 139ZM1423.12 112.123L1425.02 106.693L1466.51 106.693L1468.52 112.123L1423.12 112.123ZM1689.86 139L1689.86 47.5437L1654.67 47.5437L1654.67 42.114L1731.13 42.114L1731.13 47.5437L1695.94 47.5437L1695.94 139L1689.86 139ZM1810.8 139L1810.8 42.114L1873.64 42.114L1873.64 47.5437L1816.74 47.5437L1816.74 87.2483L1867.26 87.2483L1867.26 92.678L1816.74 92.678L1816.74 133.57L1873.64 133.57L1873.64 139L1810.8 139ZM1956.46 139L1956.46 42.114L1962.39 42.114L1962.39 133.57L2008.07 133.57L2008.07 139L1956.46 139ZM2087.8 139L2087.8 42.114L2093.74 42.114L2093.74 133.57L2139.41 133.57L2139.41 139L2087.8 139ZM2219.14 139L2219.14 42.114L2281.98 42.114L2281.98 47.5437L2225.07 47.5437L2225.07 87.2483L2275.6 87.2483L2275.6 92.678L2225.07 92.678L2225.07 133.57L2281.98 133.57L2281.98 139L2219.14 139ZM2401.74 140.12Q2388.78 140.12 2379.01 133.978Q2369.27 127.801 2363.91 116.603Q2358.58 105.404 2358.58 90.4722Q2358.58 75.5745 2363.91 64.4775Q2369.27 53.3467 2379.01 47.1704Q2388.78 40.9941 2401.74 40.9941Q2415.51 40.9941 2425.56 47.8152Q2435.6 54.6362 2440.15 66.5815L2434.69 68.6516Q2430.82 58.6746 2422.4 52.7358Q2414.02 46.7632 2401.74 46.7632Q2390.41 46.7632 2382.03 52.125Q2373.65 57.4868 2369.07 67.2942Q2364.52 77.1016 2364.52 90.4722Q2364.52 103.877 2369.07 113.752Q2373.65 123.627 2382.03 128.989Q2390.41 134.351 2401.74 134.351Q2414.02 134.351 2422.4 128.378Q2430.82 122.406 2434.69 112.462L2440.15 114.499Q2435.6 126.41 2425.49 133.265Q2415.41 140.12 2401.74 140.12ZM2523.7 139L2523.7 42.114L2529.64 42.114L2529.64 86.9089L2584.1 86.9089L2584.1 42.114L2590.14 42.114L2590.14 139L2584.1 139L2584.1 92.4744L2529.64 92.4744L2529.64 139L2523.7 139ZM2679.36 139L2679.36 42.114L2742.21 42.114L2742.21 47.5437L2685.3 47.5437L2685.3 87.2483L2735.83 87.2483L2735.83 92.678L2685.3 92.678L2685.3 133.57L2742.21 133.57L2742.21 139L2679.36 139ZM2816.5 139L2851.32 42.114L2856.89 42.114L2891.83 139L2885.25 139L2854.21 49.9871L2823.12 139L2816.5 139ZM2831.5 112.123L2833.4 106.693L2874.9 106.693L2876.9 112.123L2831.5 112.123Z"/></svg>